# xmcd
#
# Track frame offsets:
#	225
#	15119
#	27050
#	42086
#	56117
#	72924
#	89346
#	102727
#	116220
#	130605
#	145238
#	156972
#	182076
#	200250
#	214609
#	229438
#
# Disc length: 3265
#
# Revision: 1
# Processed by: cddbd v1.5.1PL0 Copyright (c) Steve Scherf et al.
# Submitted via: audiograbber 1.83.01
# Normalized: r0:DSETVAR1
#
DISCID=df0cbe10
DTITLE=Various Artist - Schlager der Liebe CD2
DYEAR=1900
DGENRE=Schlager
TTITLE0=Die Paldauer - Aber Dich gibt's nur einmal für mich
TTITLE1=Heidi Brühl - Wir wollen niemals auseinander geh'n
TTITLE2=Bata Illic - Schwarze Madonna
TTITLE3=Peter Orloff - Du musst Dich heute oder nie entscheiden
TTITLE4=Ulli Martin - Ich träume mit offenen Augen
TTITLE5=Jürgen Marcus - Die Liebe zählt
TTITLE6=Atlantis - Am liebsten tanz i mit Dir
TTITLE7=Lena Valaitis - Alles, was Dein Herz begehrt
TTITLE8=Waterloo - Nur Du
TTITLE9=Trio Melody - Sehnsucht nach Dir
TTITLE10=Jens Dietmann - Die Liebesmelodie
TTITLE11=Trio Alpin - Nie mehr allein
TTITLE12=Drafi Deutscher - Marmor, Stein und Eisen bricht
TTITLE13=Orig. Südtiroler Spitzbuam - Sehnsucht nach Zärtlichkeit
TTITLE14=Ireen Sheer and Gaum du Porter - Zwei Herzen, ein Gedanke
TTITLE15=Roland B. - Bleib mir treu
EXTD=
EXTT0=
EXTT1=
EXTT2=
EXTT3=
EXTT4=
EXTT5=
EXTT6=
EXTT7=
EXTT8=
EXTT9=
EXTT10=
EXTT11=
EXTT12=
EXTT13=
EXTT14=
EXTT15=
PLAYORDER=
